<svg width="1200" height="630" viewBox="0 0 1200 630" fill="none" xmlns="http://www.w3.org/2000/svg">
  <rect width="1200" height="630" rx="48" fill="#0F172A"/>
  <circle cx="980" cy="110" r="180" fill="#34D399" fill-opacity="0.08"/>
  <circle cx="180" cy="520" r="160" fill="#FB923C" fill-opacity="0.08"/>
  <rect x="60" y="60" width="1080" height="510" rx="40" fill="url(#paint0_linear_1_2)" stroke="#FFFFFF" stroke-opacity="0.08"/>
  <rect x="96" y="96" width="490" height="438" rx="32" fill="#020617" fill-opacity="0.42"/>
  <text x="128" y="170" fill="#F8FAFC" font-family="Arial, sans-serif" font-size="28" font-weight="700" letter-spacing="4">LEAD SHORTS</text>
  <text x="128" y="252" fill="#F8FAFC" font-family="Arial, sans-serif" font-size="68" font-weight="700">Crea videos</text>
  <text x="128" y="332" fill="#F8FAFC" font-family="Arial, sans-serif" font-size="68" font-weight="700">para vender</text>
  <text x="128" y="412" fill="#34D399" font-family="Arial, sans-serif" font-size="68" font-weight="700">más en redes</text>
  <text x="128" y="474" fill="#CBD5E1" font-family="Arial, sans-serif" font-size="28" font-weight="400">Publica más veces. Consigue más mensajes.</text>
  <rect x="690" y="110" width="360" height="410" rx="42" fill="#111827"/>
  <rect x="718" y="138" width="304" height="354" rx="32" fill="#1E293B"/>
  <rect x="742" y="176" width="256" height="152" rx="24" fill="url(#paint1_linear_1_2)"/>
  <rect x="742" y="354" width="256" height="54" rx="18" fill="#020617" fill-opacity="0.5"/>
  <rect x="742" y="424" width="198" height="44" rx="16" fill="#FCD34D"/>
  <text x="765" y="389" fill="#F8FAFC" font-family="Arial, sans-serif" font-size="26" font-weight="700">Tu video listo</text>
  <text x="767" y="453" fill="#0F172A" font-family="Arial, sans-serif" font-size="22" font-weight="700">Tu oferta clara</text>
  <defs>
    <linearGradient id="paint0_linear_1_2" x1="60" y1="60" x2="1140" y2="570" gradientUnits="userSpaceOnUse">
      <stop stop-color="#111827"/>
      <stop offset="1" stop-color="#1E293B"/>
    </linearGradient>
    <linearGradient id="paint1_linear_1_2" x1="742" y1="176" x2="998" y2="328" gradientUnits="userSpaceOnUse">
      <stop stop-color="#34D399"/>
      <stop offset="1" stop-color="#0F172A"/>
    </linearGradient>
  </defs>
</svg>
